<svg xmlns="http://www.w3.org/2000/svg" viewBox="0 0 12 12">
   <g>
      <path
         style="fill:#000000;fill-opacity:1;stroke:#000000;stroke-width:1.79999995;stroke-linecap:butt;stroke-linejoin:miter;stroke-miterlimit:10;stroke-dasharray:none;stroke-opacity:1"
         d="M 11,6 C 11,3.2382813 8.7617182,1.0000001 6,1.0000001 3.2382813,1.0000001 1.0000001,3.2382813 1.0000001,6 c 0,2.7617186 2.2382812,5 4.9999999,5 2.7617182,0 5,-2.2382814 5,-5 z m 0,0" />
      <path
         style="fill:#000000;fill-opacity:1;stroke:#fffffe;stroke-width:0.60000002;stroke-linecap:butt;stroke-linejoin:miter;stroke-miterlimit:10;stroke-dasharray:none;stroke-opacity:1"
         d="M 11,6 C 11,3.2382812 8.7617188,1 6,1 3.2382812,1 1,3.2382812 1,6 c 0,2.7617188 2.2382812,5 5,5 2.7617188,0 5,-2.2382812 5,-5 z m 0,0" />
      <path
         style="fill:none;stroke:#ffffff;stroke-width:0.60000002;stroke-linecap:butt;stroke-linejoin:miter;stroke-miterlimit:10;stroke-dasharray:none;stroke-opacity:1"
         d="M 6,1.0000001 C 4.61914,1.0000001 3.5,2.1191406 3.5,3.5 3.5,4.8808593 4.61914,6 6,6" />
      <path
         style="fill:none;stroke:#ffffff;stroke-width:0.60000002;stroke-linecap:butt;stroke-linejoin:miter;stroke-miterlimit:10;stroke-dasharray:none;stroke-opacity:1"
         d="M 1.6698731,8.4999999 C 2.3603031,9.6958597 3.8890772,10.105493 5.0849365,9.4150634 6.2807958,8.7246338 6.69043,7.1958597 6,5.9999999 6.69043,4.8041401 8.2192041,4.3945065 9.4150637,5.0849369 10.610923,5.7753661 11.020557,7.3041401 10.330127,8.4999999" />
      <path
         style="fill:#ffffff;fill-opacity:1;fill-rule:nonzero;stroke:none;stroke-width:0.66761273;stroke-miterlimit:10;stroke-dasharray:none"
         d="m 6.4998405,3.5 c 0,-0.2759989 -0.2238417,-0.4998405 -0.499841,-0.4998405 -0.2759985,0 -0.49984,0.2238416 -0.49984,0.4998405 0,0.2759989 0.2238415,0.4998405 0.49984,0.4998405 0.2759993,0 0.499841,-0.2238416 0.499841,-0.4998405" />
      <path
         style="fill:#ffffff;fill-opacity:1;fill-rule:nonzero;stroke:none;stroke-width:0.66761273;stroke-miterlimit:10;stroke-dasharray:none"
         d="m 4.3347771,7.2499999 c 0,-0.2759989 -0.2238417,-0.4998405 -0.499841,-0.4998405 -0.2759985,0 -0.49984,0.2238416 -0.49984,0.4998405 0,0.2759989 0.2238415,0.4998405 0.49984,0.4998405 0.2759993,0 0.499841,-0.2238416 0.499841,-0.4998405" />
      <path
         style="fill:#ffffff;fill-opacity:1;fill-rule:nonzero;stroke:none;stroke-width:0.66761273;stroke-miterlimit:10;stroke-dasharray:none"
         d="m 8.6649039,7.2499999 c 0,-0.2759989 -0.2238417,-0.4998405 -0.4998411,-0.4998405 -0.2759984,0 -0.4998399,0.2238416 -0.4998399,0.4998405 0,0.2759989 0.2238415,0.4998405 0.4998399,0.4998405 0.2759994,0 0.4998411,-0.2238416 0.4998411,-0.4998405" />
   </g>
</svg>