<?xml version="1.0" standalone="no"?>
<!DOCTYPE svg PUBLIC "-//W3C//DTD SVG 20010904//EN" "http://www.w3.org/TR/2001/REC-SVG-20010904/DTD/svg10.dtd">
<svg version="1.0" xmlns="http://www.w3.org/2000/svg" width="700.000000pt" height="700.000000pt"
  viewBox="0 0 700.000000 700.000000" preserveAspectRatio="xMidYMid meet">
  <metadata>
    Created by potrace 1.14, written by Peter Selinger 2001-2017
  </metadata>
  <g transform="translate(0.000000,700.000000) scale(0.100000,-0.100000)" fill="#2b5797" stroke="none">
    <path d="M3269 6936 c-2 -2 -40 -7 -84 -10 -44 -3 -91 -8 -105 -10 -14 -3 -45
-7 -70 -10 -25 -4 -56 -8 -70 -10 -14 -3 -42 -7 -63 -10 -72 -11 -291 -66
-407 -102 -243 -77 -504 -193 -727 -325 -80 -46 -277 -178 -321 -214 -216
-175 -369 -316 -472 -435 -12 -14 -36 -41 -53 -60 -191 -209 -422 -575 -552
-875 -82 -188 -186 -510 -211 -652 -2 -13 -6 -34 -9 -48 -3 -14 -7 -37 -10
-53 -3 -15 -8 -38 -10 -52 -10 -55 -22 -149 -32 -255 -10 -101 -10 -526 -1
-625 69 -733 352 -1394 837 -1954 104 -120 254 -266 417 -405 75 -64 300 -220
419 -291 241 -143 569 -286 795 -346 172 -46 330 -81 400 -89 33 -4 100 -15
125 -20 133 -27 683 -27 870 0 142 21 303 52 420 82 126 32 338 99 390 123 11
5 49 21 85 36 101 41 266 122 370 181 93 53 316 199 374 245 208 163 461 408
600 581 242 303 424 623 553 971 43 118 108 331 118 389 3 17 8 34 10 37 3 4
8 25 11 46 3 22 7 44 9 49 19 86 38 217 52 360 16 158 9 618 -11 735 -2 14 -7
48 -10 76 -28 248 -142 637 -271 924 -383 852 -1114 1520 -2003 1830 -178 62
-420 124 -567 145 -22 4 -51 8 -65 11 -14 2 -47 7 -75 10 -27 2 -63 7 -80 10
-36 6 -571 15 -576 10z" />
  </g>
</svg>